<?xml version="1.0" standalone="no"?>
<!DOCTYPE svg PUBLIC "-//W3C//DTD SVG 20010904//EN"
		"http://www.w3.org/TR/2001/REC-SVG-20010904/DTD/svg10.dtd">
<svg version="1.0" xmlns="http://www.w3.org/2000/svg"
	 width="172.000000pt" height="172.000000pt" viewBox="0 0 172.000000 172.000000"
	 preserveAspectRatio="xMidYMid meet">
	<metadata>
		Created by potrace 1.13, written by Peter Selinger 2001-2015
	</metadata>
	<g transform="translate(0.000000,172.000000) scale(0.100000,-0.100000)" stroke="none">
		<path d="M690 1705 c-280 -57 -529 -266 -631 -529 -219 -569 195 -1176 802
-1176 225 0 427 82 591 238 256 245 337 607 209 938 -83 216 -277 407 -496
489 -142 54 -329 69 -475 40z m366 -89 c272 -71 494 -297 565 -576 18 -72 18
-288 0 -360 -70 -277 -289 -502 -561 -576 -91 -25 -309 -25 -400 0 -222 60
-422 232 -515 441 -47 107 -59 170 -59 315 0 145 12 208 59 315 55 124 165
253 284 334 97 66 188 101 331 125 50 9 237 -3 296 -18z"/>
		<path d="M712 1028 c-10 -10 4 -29 65 -90 l78 -78 -78 -78 c-61 -61 -75 -80
-65 -90 10 -10 29 4 90 65 l78 78 78 -78 c61 -61 80 -75 90 -65 10 10 -4 29
-65 90 l-78 78 78 78 c61 61 75 80 65 90 -10 10 -29 -4 -90 -65 l-78 -78 -78
78 c-61 61 -80 75 -90 65z"/>
	</g>
</svg>