<svg id="SvgjsSvg1000" xmlns="http://www.w3.org/2000/svg" version="1.1" xmlns:xlink="http://www.w3.org/1999/xlink" xmlns:svgjs="http://svgjs.com/svgjs" width="18" height="18" viewBox="0 0 18 18"><title>Oval 4</title><desc>Created with Avocode.</desc><defs id="SvgjsDefs1001"></defs><path id="SvgjsPath1007" d="M1801 391C1801 386.02944 1805.02944 382 1810 382C1814.97056 382 1819 386.02944 1819 391C1819 395.97056 1814.97056 400 1810 400C1805.02944 400 1801 395.97056 1801 391Z " fill="#2d2d2d" fill-opacity="1" transform="matrix(1,0,0,1,-1801,-382)"></path><path id="SvgjsPath1008" d="M1806.46447 393.12132L1812.12132 387.46447L1813.5355299999999 388.87868000000003L1807.8786799999998 394.53553000000005Z " fill="#ababab" fill-opacity="1" transform="matrix(1,0,0,1,-1801,-382)"></path><path id="SvgjsPath1009" d="M1806.46447 388.87868L1812.12132 394.53553L1813.5355299999999 393.12131999999997L1807.8786799999998 387.46446999999995Z " fill="#ababab" fill-opacity="1" transform="matrix(1,0,0,1,-1801,-382)"></path></svg>