<svg id="SvgjsSvg1016" xmlns="http://www.w3.org/2000/svg" version="1.1" xmlns:xlink="http://www.w3.org/1999/xlink" xmlns:svgjs="http://svgjs.com/svgjs" width="18" height="14" viewBox="0 0 18 14"><title>Shape</title><desc>Created with Avocode.</desc><defs id="SvgjsDefs1017"></defs><path id="SvgjsPath1018" d="M355.7 53L340.3 53L342.23 41L353.77000000000004 41ZM341.25 40L339 54L357 54L354.75 40Z " fill="#000000" fill-opacity="1" transform="matrix(1,0,0,1,-339,-40)"></path><path id="SvgjsPath1019" d="M353 43C353 42.45 352.5 42 351.88 42C351.25 42 350.75 42.45 350.75 43C350.75 43.34 350.96 43.63 351.25 43.81C350.98 45.61 349.83 47 348.5 47C347.17 47 346.02 45.61 345.75 43.81C346.04 43.63 346.25 43.34 346.25 43C346.25 42.45 345.75 42 345.13 42C344.5 42 344 42.45 344 43C344 43.39 344.26 43.72 344.63 43.89C344.95 46.25 346.53 48 348.5 48C350.47 48 352.05 46.25 352.37 43.89C352.74 43.72 353 43.39 353 43Z " fill="#000000" fill-opacity="1" transform="matrix(1,0,0,1,-339,-40)"></path></svg>