<svg xmlns="http://www.w3.org/2000/svg" viewBox="0 0 37.32 37.43"><title>Ресурс 1</title><g id="Шар_2" data-name="Шар 2"><g id="Layer_1" data-name="Layer 1"><g id="_Група_" data-name="&lt;Група&gt;"><path id="_Контур_" data-name="&lt;Контур&gt;" d="M26.42,13.41H37.24a2.83,2.83,0,0,1,0,.3c0,5.54,0,11.08,0,16.62a7.37,7.37,0,0,1-5.1,6.82,5.78,5.78,0,0,1-1.79.29q-11.66,0-23.33,0a6.6,6.6,0,0,1-3.4-1A7.14,7.14,0,0,1,.22,31.78,11.46,11.46,0,0,1,0,29.15c0-5,0-9.93,0-14.89,0-.82,0-.86.83-.86,3.25,0,6.5,0,9.75,0l.2,0c-.09.19-.17.36-.27.52a9.15,9.15,0,0,0-1.25,3.23c-.79,5.64,2.51,9.94,7.27,11A9.5,9.5,0,0,0,26.75,14C26.64,13.82,26.55,13.64,26.42,13.41Z"/><path id="_Складений_контур_" data-name="&lt;Складений контур&gt;" d="M0,12.27c0-1.71,0-3.37,0-5A6.81,6.81,0,0,1,.56,4.66,7.68,7.68,0,0,1,3.14,1.42V9.23H4.62V8.77c0-2.56,0-5.11,0-7.67,0-.42.1-.64.52-.71.15,0,.3-.08.54-.14v9H7.23V0h1v9.2H9.79V0l.4,0,13.5,0c2.15,0,4.3.05,6.46,0a6.34,6.34,0,0,1,2.72.64,7.24,7.24,0,0,1,4.21,5,9.82,9.82,0,0,1,.21,2.18c0,1.34,0,2.69,0,4,0,.11,0,.21,0,.34l-.39,0H25.71a.82.82,0,0,1-.52-.18,9.53,9.53,0,0,0-12.85-.25,1.75,1.75,0,0,1-1.25.45c-3.58,0-7.17,0-10.75,0ZM27.68,6.39h0c0,.67,0,1.34,0,2a.94.94,0,0,0,1,1.06c1.4,0,2.81,0,4.21,0a.89.89,0,0,0,1-1c0-1.44,0-2.88,0-4.32a.83.83,0,0,0-.9-.9q-2.21,0-4.43,0c-.54,0-.77.22-.8.77C27.65,4.82,27.68,5.61,27.68,6.39Z"/><path id="_Складений_контур_2" data-name="&lt;Складений контур&gt;" d="M26,19a7.34,7.34,0,0,1-14.67-.11,7.43,7.43,0,0,1,7.12-7.29A7.32,7.32,0,0,1,26,19ZM18.5,13.57A5.38,5.38,0,1,0,24,19.05,5.4,5.4,0,0,0,18.5,13.57Z"/></g></g></g></svg>