<svg id="SvgjsSvg1008" xmlns="http://www.w3.org/2000/svg" version="1.1" xmlns:xlink="http://www.w3.org/1999/xlink" xmlns:svgjs="http://svgjs.com/svgjs" width="688" height="179" viewBox="0 0 688 179"><title>Lone bird</title><desc>Created with Avocode.</desc><defs id="SvgjsDefs1009"></defs><path id="SvgjsPath1010" d="M834.743 403.629C836.2090000000001 402.163 837.9490000000001 400.76 839.965 399.41400000000004C841.981 398.07200000000006 844.0880000000001 396.94100000000003 846.287 396.02400000000006C848.485 395.10800000000006 850.7760000000001 394.53000000000003 853.158 394.28400000000005C855.54 394.04 857.83 394.34700000000004 860.029 395.20000000000005C862.594 396.17900000000003 864.487 397.70500000000004 865.709 399.78100000000006C866.929 401.85900000000004 867.5419999999999 404.3020000000001 867.5419999999999 407.11000000000007C867.5419999999999 409.55500000000006 867.084 412.1810000000001 866.1679999999999 414.9890000000001C865.2509999999999 417.8010000000001 863.9689999999999 420.5490000000001 862.3199999999999 423.23500000000007C860.67 425.92300000000006 858.746 428.39700000000005 856.5479999999999 430.65600000000006C854.3489999999999 432.91800000000006 852.0269999999999 434.71900000000005 849.5849999999999 436.06200000000007C845.064 438.5060000000001 840.5749999999999 440.21600000000007 836.117 441.19200000000006C831.656 442.17100000000005 827.4739999999999 442.6580000000001 823.5659999999999 442.6580000000001C817.8219999999999 442.6580000000001 812.1729999999999 441.7130000000001 806.6159999999999 439.8180000000001C801.0559999999999 437.9250000000001 795.4069999999999 435.6350000000001 789.6669999999999 432.9460000000001C796.6299999999999 424.5180000000001 802.6449999999999 415.5100000000001 807.7159999999999 405.9190000000001C812.7829999999999 396.3310000000001 817.2729999999999 386.5880000000001 821.1829999999999 376.6930000000001C829.9789999999999 374.6180000000001 838.5909999999999 371.5940000000001 847.0199999999999 367.6230000000001C855.4479999999999 363.6550000000001 863.1439999999999 359.0110000000001 870.1069999999999 353.6970000000001C877.0699999999998 348.3840000000001 883.0539999999999 342.5200000000001 888.0639999999999 336.10700000000014C893.0719999999999 329.69400000000013 896.5529999999999 323.00600000000014 898.5089999999999 316.0430000000001C899.608 312.9910000000001 900.1579999999999 309.9960000000001 900.1579999999999 307.06400000000014C900.1579999999999 303.64600000000013 899.5759999999999 300.34700000000015 898.4169999999999 297.16900000000015C897.2539999999999 293.99400000000014 895.5769999999999 291.1850000000002 893.3779999999999 288.74100000000016C891.179 286.2980000000002 888.4309999999999 284.34300000000013 885.132 282.8770000000002C881.834 281.4110000000002 877.986 280.67800000000017 873.5889999999999 280.67800000000017C864.5469999999999 280.67800000000017 856.4559999999999 283.18400000000014 849.31 288.19100000000014C842.164 293.20100000000014 835.659 299.76600000000013 829.795 307.8890000000001C823.9319999999999 316.0140000000001 818.555 325.2040000000001 813.6709999999999 335.46500000000015C808.784 345.72700000000015 804.0799999999999 356.11100000000016 799.5619999999999 366.6150000000001C791.2529999999999 366.7380000000001 783.9869999999999 365.9140000000001 777.757 364.1420000000001C771.5269999999999 362.3730000000001 766.333 359.92700000000013 762.1819999999999 356.8120000000001C758.0279999999999 353.6970000000001 754.9129999999999 350.06400000000014 752.8369999999999 345.91000000000014C750.7579999999999 341.7590000000001 749.7219999999999 337.36100000000016 749.7219999999999 332.71700000000016C749.7219999999999 328.93200000000013 750.2089999999998 325.6340000000001 751.1879999999999 322.8220000000002C752.1639999999999 319.52400000000017 753.5979999999998 316.44100000000014 755.4939999999999 313.5690000000002C757.386 310.70000000000016 759.6769999999999 308.1640000000002 762.3649999999999 305.9650000000002C765.0509999999999 303.7660000000002 768.137 302.0560000000002 771.6179999999999 300.8340000000002C775.0999999999999 299.61400000000015 778.9159999999999 299.0020000000002 783.0709999999999 299.0020000000002C786.612 299.0020000000002 790.4599999999999 299.4600000000002 794.6139999999999 300.3760000000002C798.766 301.2920000000002 802.9799999999999 302.7900000000002 807.2579999999999 304.8650000000002L812.2049999999999 302.3000000000002C808.66 300.22400000000016 804.3539999999999 298.3600000000002 799.2869999999999 296.7110000000002C794.2159999999999 295.0620000000002 789.2379999999999 294.23800000000017 784.353 294.23800000000017C776.6569999999999 294.23800000000017 769.938 295.27700000000016 764.197 297.3530000000002C758.454 299.43100000000015 753.69 302.1800000000002 749.905 305.5980000000002C746.117 309.0200000000002 743.2769999999999 312.9590000000002 741.385 317.4170000000002C739.489 321.8770000000002 738.544 326.4870000000002 738.544 331.2510000000002C738.544 336.6280000000002 739.736 342.0330000000002 742.1179999999999 347.4670000000002C744.4999999999999 352.9040000000002 748.0409999999999 357.8520000000002 752.7449999999999 362.3090000000002C757.4459999999999 366.7700000000002 763.2809999999998 370.5550000000002 770.2439999999999 373.6700000000002C777.2069999999999 376.7850000000002 785.2689999999999 378.7090000000002 794.4309999999999 379.4420000000002C790.6429999999999 387.87100000000015 786.8559999999999 395.81300000000016 783.0709999999999 403.26200000000017C779.2829999999999 410.71500000000015 775.3119999999999 417.37100000000015 771.16 423.2350000000002C765.9069999999999 420.7930000000002 760.5609999999999 418.77700000000016 755.127 417.18800000000016C749.6899999999999 415.60200000000015 743.9789999999999 414.80600000000015 737.995 414.80600000000015C735.55 414.80600000000015 732.984 414.98900000000015 730.299 415.35600000000017C722.357 416.33500000000015 716.528 418.80900000000014 712.8 422.77700000000016C709.0749999999999 426.74800000000016 707.2109999999999 430.99400000000014 707.2109999999999 435.51200000000017C707.2109999999999 438.32300000000015 707.8839999999999 441.0720000000002 709.2269999999999 443.7570000000002C710.5729999999999 446.4460000000002 712.5249999999999 448.85900000000015 715.0899999999999 450.9950000000002C717.656 453.1310000000002 720.862 454.8720000000002 724.7099999999999 456.21700000000016C728.5579999999999 457.5600000000002 732.9839999999999 458.2330000000002 737.9949999999999 458.2330000000002C738.7279999999998 458.2330000000002 739.5809999999999 458.2010000000002 740.56 458.1410000000002C741.536 458.0780000000002 742.5129999999999 457.9870000000002 743.492 457.8660000000002C750.4549999999999 457.0100000000002 756.9879999999999 455.2100000000002 763.098 452.46100000000024C769.2049999999999 449.7120000000002 774.9449999999999 446.32300000000026 780.322 442.2910000000002C785.939 445.10300000000024 792.049 447.54500000000024 798.645 449.6210000000002C805.242 451.6960000000002 812.2049999999999 453.1620000000002 819.534 454.0180000000002C827.597 454.5050000000002 835.384 453.4970000000002 842.8969999999999 450.9950000000002C850.4089999999999 448.49300000000017 856.9739999999999 444.94800000000015 862.5939999999999 440.3670000000002C868.212 435.7870000000002 872.5179999999999 430.3810000000002 875.512 424.1510000000002C878.5039999999999 417.92100000000016 879.512 411.32500000000016 878.536 404.3620000000002C878.29 402.1630000000002 877.6479999999999 400.0270000000002 876.612 397.9490000000002C875.573 395.87300000000016 874.198 393.9800000000002 872.4889999999999 392.2680000000002C870.7769999999999 390.5590000000002 868.733 389.1850000000002 866.3509999999999 388.1460000000002C863.9689999999999 387.1090000000002 861.3119999999999 386.5880000000002 858.3799999999999 386.5880000000002C856.1809999999999 386.5880000000002 853.8589999999999 386.9860000000002 851.4169999999999 387.77900000000017C848.9719999999999 388.57500000000016 846.5609999999999 389.6120000000002 844.1789999999999 390.8940000000002C841.7969999999999 392.1770000000002 839.5989999999998 393.58200000000016 837.5829999999999 395.1080000000002C835.5669999999999 396.63700000000017 833.9469999999999 398.19500000000016 832.7269999999999 399.7810000000002ZM1217.6 315.951C1218.1499999999999 313.082 1218.4299999999998 310.242 1218.4299999999998 307.43100000000004C1218.4299999999998 303.88900000000007 1217.57 300.53000000000003 1215.86 297.35300000000007C1214.1499999999999 294.17800000000005 1211.53 291.97900000000004 1207.9799999999998 290.7560000000001C1204.4399999999998 290.26900000000006 1200.6799999999998 291.03100000000006 1196.7099999999998 293.0470000000001C1192.7399999999998 295.06200000000007 1188.7399999999998 298.0250000000001 1184.7099999999998 301.9340000000001C1180.6799999999998 305.8450000000001 1176.6499999999999 310.45400000000006 1172.62 315.7680000000001C1168.59 321.0820000000001 1164.6499999999999 326.76200000000006 1160.8 332.8090000000001C1156.95 338.8550000000001 1153.32 345.0250000000001 1149.8999999999999 351.31500000000005C1146.4799999999998 357.60800000000006 1143.36 363.6840000000001 1140.55 369.547C1137.74 375.411 1135.3 380.879 1133.22 385.946C1131.15 391.01700000000005 1129.56 395.26300000000003 1128.46 398.682C1126.38 405.035 1124.8 410.71500000000003 1123.7 415.72200000000004C1122.6000000000001 420.73300000000006 1122.05 425.25100000000003 1122.05 429.28200000000004C1122.05 434.29200000000003 1122.8999999999999 438.535 1124.61 442.016C1126.32 445.49800000000005 1128.9499999999998 448.82800000000003 1132.49 452.00300000000004C1134.08 453.46900000000005 1135.7 454.50500000000005 1137.35 455.11800000000005C1139 455.72800000000007 1140.61 456.03400000000005 1142.1999999999998 456.03400000000005C1145.4999999999998 456.03400000000005 1148.6399999999999 454.93500000000006 1151.6399999999999 452.73600000000005C1154.6299999999999 450.53700000000003 1157.1599999999999 448.338 1159.2399999999998 446.13900000000007C1164.7399999999998 441.00900000000007 1169.8099999999997 434.71900000000005 1174.4499999999998 427.2660000000001C1176.2799999999997 428.36500000000007 1178.0499999999997 429.2530000000001 1179.7699999999998 429.92300000000006C1181.4699999999998 430.59600000000006 1183.0599999999997 430.93100000000004 1184.5299999999997 430.93100000000004C1185.5021199999996 430.93100000000004 1186.4458399999996 430.84472000000005 1187.3621899999998 430.67155C1186.6964199999998 432.50333 1186.1190299999998 434.17782 1185.6299999999999 435.69500000000005C1184.6499999999999 438.62700000000007 1184.35 441.34700000000004 1184.7099999999998 443.84900000000005C1185.0799999999997 446.35400000000004 1185.9699999999998 448.58400000000006 1187.37 450.53700000000003C1188.78 452.49 1190.58 454.01800000000003 1192.77 455.11800000000005C1194.97 456.21700000000004 1197.36 456.76700000000005 1199.92 456.76700000000005C1202 456.76700000000005 1203.95 456.40000000000003 1205.78 455.66800000000006C1208.72 454.56800000000004 1211.71 452.3690000000001 1214.76 449.0710000000001C1217.82 445.7730000000001 1220.75 442.10800000000006 1223.56 438.0770000000001C1226.37 434.0460000000001 1228.96 429.9540000000001 1231.35 425.8000000000001C1231.86853 424.89563000000015 1232.36522 424.0230600000001 1232.84018 423.1822800000001L1233.27 423.4180000000001L1234.37 422.13600000000014C1236.08 419.57000000000016 1238.1299999999999 416.48700000000014 1240.51 412.8820000000001C1242.89 409.2810000000001 1245.12 405.7670000000001 1247.2 402.3460000000001L1252.14 404.7280000000001C1255.68 406.4400000000001 1258.0300000000002 408.39300000000014 1259.2 410.5920000000001C1260.3600000000001 412.7910000000001 1259.47 415.4790000000001 1256.54 418.6540000000001L1256.72 418.6540000000001C1255.13 420.48700000000014 1253.76 422.4420000000001 1252.6000000000001 424.5180000000001C1251.44 426.59600000000006 1250.4900000000002 428.6400000000001 1249.7600000000002 430.65600000000006C1249.0300000000002 432.6720000000001 1248.4800000000002 434.5040000000001 1248.1100000000001 436.1530000000001C1247.7400000000002 437.8020000000001 1247.5600000000002 439.1760000000001 1247.5600000000002 440.27600000000007C1247.68 444.3070000000001 1249.18 447.66800000000006 1252.0500000000002 450.35400000000004C1254.92 453.03900000000004 1258.3700000000001 454.38500000000005 1262.4 454.38500000000005C1264.1100000000001 454.38500000000005 1265.89 454.11000000000007 1267.72 453.56000000000006C1269.55 453.01000000000005 1271.32 452.06300000000005 1273.03 450.7200000000001C1277.67 447.1790000000001 1281.7 442.8130000000001 1285.12 437.6190000000001C1285.8140799999999 436.5655000000001 1286.50075 435.5082500000001 1287.1800099999998 434.4472100000001C1287.2241599999998 434.7101700000001 1287.2708199999997 434.9734300000001 1287.3199999999997 435.2370000000001C1287.8099999999997 437.86500000000007 1288.4799999999998 440.39900000000006 1289.3399999999997 442.84100000000007C1290.7999999999997 446.2630000000001 1292.9999999999998 449.16300000000007 1295.9299999999996 451.5450000000001C1298.8699999999997 453.9270000000001 1302.4099999999996 454.8110000000001 1306.5599999999997 454.20200000000006C1308.7599999999998 453.95500000000004 1311.0499999999997 452.46100000000007 1313.4299999999996 449.71200000000005C1315.8099999999997 446.96400000000006 1318.0999999999997 443.82000000000005 1320.2999999999995 440.27600000000007C1321.3999999999994 444.43000000000006 1323.3599999999994 448.0350000000001 1326.1699999999994 451.08700000000005C1328.9799999999993 454.13800000000003 1332.1499999999994 455.66800000000006 1335.6999999999994 455.66800000000006C1336.7899999999993 455.66800000000006 1337.8299999999995 455.5760000000001 1338.8099999999993 455.3930000000001C1339.7899999999993 455.2100000000001 1340.7599999999993 454.99500000000006 1341.7399999999993 454.7510000000001C1344.6699999999994 453.7720000000001 1347.6699999999994 451.6650000000001 1350.7199999999993 448.43000000000006C1353.7699999999993 445.19500000000005 1356.6799999999994 441.5300000000001 1359.4199999999994 437.43600000000004C1362.1699999999994 433.34400000000005 1364.7099999999994 429.19000000000005 1367.0299999999993 424.97600000000006C1369.3499999999992 420.7610000000001 1371.2999999999993 417.18800000000005 1372.8899999999992 414.25700000000006C1372.5299999999993 413.89000000000004 1372.2199999999991 413.70700000000005 1371.979999999999 413.70700000000005C1371.6099999999992 413.463 1371.1199999999992 413.28000000000003 1370.509999999999 413.15700000000004C1369.8999999999992 413.03700000000003 1369.099999999999 412.73 1368.129999999999 412.24100000000004C1364.579999999999 417.37100000000004 1360.679999999999 422.44200000000006 1356.399999999999 427.44900000000007C1352.119999999999 432.4600000000001 1347.969999999999 436.97800000000007 1343.939999999999 441.00900000000007C1340.399999999999 444.67300000000006 1337.649999999999 445.9270000000001 1335.699999999999 444.76500000000004C1333.7399999999989 443.60600000000005 1333.4999999999989 440.27600000000007 1334.959999999999 434.77900000000005C1335.699999999999 432.58000000000004 1337.459999999999 428.36500000000007 1340.2799999999988 422.1360000000001C1343.0799999999988 415.90600000000006 1346.409999999999 408.5760000000001 1350.2599999999989 400.1470000000001C1354.1099999999988 391.7190000000001 1358.2299999999989 382.7400000000001 1362.6299999999987 373.2120000000001C1367.0299999999988 363.6840000000001 1371.2999999999988 354.5530000000001 1375.4599999999987 345.8180000000001C1379.6099999999988 337.0860000000001 1383.3699999999988 329.2360000000001 1386.7299999999987 322.2730000000001C1390.0799999999986 315.31000000000006 1392.5599999999986 310.2420000000001 1394.1499999999987 307.0640000000001L1379.4899999999986 307.24700000000007C1378.5099999999986 308.2270000000001 1376.7399999999986 311.18700000000007 1374.1699999999987 316.13400000000007C1371.6099999999988 321.08200000000005 1368.5499999999988 327.2200000000001 1365.0099999999986 334.5490000000001C1361.4699999999987 341.8790000000001 1357.6799999999987 350.0040000000001 1353.6499999999987 358.9200000000001C1349.6199999999988 367.8380000000001 1345.6499999999987 376.6930000000001 1341.7399999999986 385.48800000000006C1340.8899999999987 384.1460000000001 1340.2099999999987 383.13800000000003 1339.7299999999987 382.46500000000003C1339.2399999999986 381.795 1338.8399999999986 381.30600000000004 1338.5399999999986 380.999C1338.2299999999987 380.696 1337.9899999999986 380.51300000000003 1337.7999999999986 380.45000000000005C1337.6199999999985 380.38900000000007 1337.3999999999985 380.23800000000006 1337.1599999999985 379.992C1335.8199999999986 379.259 1334.4099999999985 378.649 1332.9499999999985 378.159C1331.4799999999984 377.67199999999997 1330.0799999999986 377.426 1328.7299999999984 377.426C1325.7999999999984 377.426 1322.8999999999985 377.976 1320.0299999999984 379.075C1317.1599999999985 380.175 1314.4399999999985 381.549 1311.8699999999983 383.198C1309.3099999999984 384.847 1307.0199999999984 386.58799999999997 1304.9999999999984 388.41999999999996C1302.9899999999984 390.253 1301.3699999999983 391.842 1300.1499999999985 393.18399999999997C1295.8699999999985 397.828 1292.5399999999986 403.142 1290.1599999999985 409.126C1288.5761399999985 413.11028 1287.5192899999986 417.14727 1286.9894699999984 421.23843C1286.4862299999984 421.851 1285.9863899999984 422.45551 1285.4899999999984 423.052C1282.4399999999985 426.716 1279.2599999999984 430.627 1275.9599999999984 434.779C1271.8099999999984 439.666 1268.2399999999984 442.323 1265.2399999999984 442.749C1262.2499999999984 443.17900000000003 1260.7499999999984 441.742 1260.7499999999984 438.44300000000004C1260.7499999999984 437.34400000000005 1261.0299999999984 435.97 1261.5799999999983 434.321C1262.1299999999983 432.672 1263.1399999999983 430.687 1264.5999999999983 428.365L1268.2699999999984 423.785C1270.4699999999984 421.09900000000005 1272.6599999999985 418.10400000000004 1274.8599999999983 414.80600000000004C1277.0599999999984 411.50800000000004 1278.1599999999983 408.273 1278.1599999999983 405.095C1278.1599999999983 403.386 1277.6399999999983 401.70500000000004 1276.5999999999983 400.05600000000004C1275.5699999999983 398.40700000000004 1273.7599999999984 396.84900000000005 1271.1999999999982 395.38300000000004C1269.1199999999983 394.28400000000005 1267.1999999999982 393.49100000000004 1265.4299999999982 393.00100000000003C1263.6499999999983 392.514 1262.0999999999983 392.02500000000003 1260.7499999999982 391.535C1259.6599999999983 391.29200000000003 1258.5199999999982 390.98600000000005 1257.359999999998 390.619C1256.199999999998 390.25300000000004 1254.949999999998 389.766 1253.609999999998 389.153C1254.099999999998 387.201 1254.399999999998 385.58000000000004 1254.5199999999982 384.297C1254.639999999998 383.01500000000004 1254.7099999999982 382.007 1254.7099999999982 381.274C1254.7099999999982 377.733 1253.6699999999983 375.319 1251.5899999999983 374.036C1249.5099999999984 372.754 1247.1299999999983 372.296 1244.4499999999982 372.662C1241.6399999999983 373.518 1239.5599999999981 374.984 1238.2199999999982 377.06C1236.8699999999983 379.138 1236.1999999999982 381.457 1236.1999999999982 384.023C1236.1999999999982 386.22200000000004 1236.6899999999982 388.57500000000005 1237.6699999999983 391.077C1238.6399999999983 393.582 1239.8699999999983 395.873 1241.3299999999983 397.949C1239.3799999999983 401.493 1237.3599999999983 404.943 1235.2899999999984 408.301C1233.9975899999984 410.38936 1232.7283399999983 412.39394999999996 1231.4846599999985 414.31595C1227.8545899999986 419.16165 1224.1730399999985 423.87453 1220.4399999999985 428.457C1216.4099999999985 433.404 1212.3199999999986 437.894 1208.1699999999985 441.925C1204.3799999999985 445.469 1201.5099999999984 446.844 1199.5499999999986 446.048C1197.5999999999985 445.255 1197.2899999999986 442.231 1198.6399999999985 436.978C1200.0999999999985 433.07 1202.0899999999986 428.428 1204.5899999999986 423.052C1207.0999999999985 417.678 1209.7199999999987 412.24100000000004 1212.4699999999987 406.744C1215.2199999999987 401.247 1217.8499999999988 396.11600000000004 1220.3499999999988 391.35200000000003C1222.8499999999988 386.588 1224.7799999999988 382.92300000000006 1226.1199999999988 380.35800000000006L1211.4599999999987 380.54100000000005C1210.1199999999988 381.6410000000001 1208.2299999999987 384.45200000000006 1205.7799999999986 388.97C1203.3399999999986 393.49100000000004 1200.8399999999986 398.59000000000003 1198.2699999999986 404.27000000000004C1196.1500499999986 408.97363 1194.1055399999987 413.69921000000005 1192.1478199999985 418.44503000000003C1190.8347099999985 419.53309 1189.4851999999985 420.3666 1188.0999999999985 420.94500000000005C1184.7399999999986 422.35 1181.4699999999984 422.19900000000007 1178.2999999999986 420.487C1179.2799999999986 418.288 1180.1899999999987 416.089 1181.0499999999986 413.89000000000004C1181.8999999999985 411.69100000000003 1182.7599999999986 409.432 1183.6099999999985 407.11000000000007C1184.2199999999984 405.1580000000001 1184.7699999999986 403.01900000000006 1185.2599999999986 400.69700000000006C1185.7499999999986 398.37800000000004 1185.9999999999986 396.1790000000001 1185.9999999999986 394.10100000000006C1185.9999999999986 391.6580000000001 1185.5399999999986 389.33600000000007 1184.6199999999985 387.13800000000003C1183.7099999999984 384.939 1181.9599999999984 383.353 1179.3999999999985 382.374C1178.0499999999986 381.887 1176.7999999999986 381.947 1175.6399999999985 382.557C1174.4799999999984 383.16900000000004 1173.3799999999985 384.023 1172.3399999999986 385.122C1171.3099999999986 386.22200000000004 1170.3599999999985 387.444 1169.4999999999986 388.78700000000003C1168.6499999999987 390.13200000000006 1167.9799999999987 391.29200000000003 1167.4899999999986 392.26800000000003C1167.1199999999988 393.247 1166.7799999999986 394.925 1166.4799999999987 397.307C1166.1699999999987 399.689 1166.0199999999986 402.286 1166.0199999999986 405.095C1166.0199999999986 407.173 1166.1399999999985 409.401 1166.3899999999985 411.783C1166.6299999999985 414.165 1167.1199999999985 416.39500000000004 1167.8599999999985 418.471C1165.7799999999986 422.259 1163.2699999999986 426.107 1160.3399999999986 430.015C1157.1599999999985 433.80199999999996 1153.9599999999984 436.978 1150.7199999999987 439.543C1147.4799999999987 442.108 1144.6399999999987 443.391 1142.1999999999987 443.391C1140.2499999999986 443.391 1138.6899999999987 442.689 1137.5299999999986 441.283C1136.3699999999985 439.88100000000003 1135.7899999999986 437.65000000000003 1135.7899999999986 434.596C1135.7899999999986 429.711 1137.6799999999987 422.199 1141.4699999999987 412.058C1142.9399999999987 407.416 1144.7399999999986 402.469 1146.8799999999987 397.215C1149.0099999999989 391.965 1151.1199999999988 387.138 1153.1999999999987 382.73999999999995C1159.7899999999986 379.56499999999994 1166.4499999999987 375.74899999999997 1173.1699999999987 371.28799999999995C1179.8899999999987 366.8299999999999 1186.1499999999987 361.97499999999997 1191.9499999999987 356.72099999999995C1197.7499999999986 351.46999999999997 1202.7599999999986 345.97299999999996 1206.9799999999987 340.2289999999999C1211.1899999999987 334.4889999999999 1214.1499999999987 328.6859999999999 1215.8599999999988 322.82199999999995C1216.4699999999987 321.11299999999994 1217.0499999999988 318.8229999999999 1217.5999999999988 315.95099999999996ZM884.857 406.194C881.132 412.91400000000004 879.2679999999999 420.12 879.2679999999999 427.81600000000003C879.2679999999999 429.40500000000003 879.391 431.05400000000003 879.6339999999999 432.76300000000003C879.8809999999999 434.475 880.1839999999999 436.18500000000006 880.55 437.894C881.04 440.092 881.742 442.291 882.6579999999999 444.49C883.574 446.689 885.0709999999999 448.645 887.1469999999999 450.354C888.9789999999999 452.306 890.963 453.68 893.102 454.476C895.2379999999999 455.27 897.468 455.668 899.79 455.668C902.476 455.668 905.1039999999999 455.21 907.669 454.293C910.235 453.377 912.554 452.063 914.632 450.354C918.784 447.30199999999996 922.755 443.39099999999996 926.5419999999999 438.627C930.4499999999999 439.36 934.4219999999999 438.993 938.4529999999999 437.527C939.1362599999999 437.27868 939.8037199999999 437.00579999999997 940.4553799999999 436.70833C940.3039499999999 437.19325 940.1544899999999 437.68014 940.0069999999998 438.169C938.4819999999999 443.239 937.3509999999999 448.645 936.6179999999998 454.385L951.2759999999998 454.385C952.1329999999998 448.27799999999996 953.5669999999999 442.354 955.5819999999999 436.611C957.5979999999998 430.871 959.8889999999999 424.947 962.4539999999998 418.837C963.7969999999998 416.885 965.3849999999999 414.83799999999997 967.2179999999998 412.699C969.0499999999998 410.563 970.9739999999998 408.48400000000004 972.9899999999999 406.469C975.0049999999999 404.453 977.0209999999998 402.561 979.0369999999999 400.789C981.0519999999999 399.019 982.9129999999999 397.522 984.6249999999999 396.299C986.9439999999998 394.957 988.8999999999999 394.224 990.4889999999999 394.101C992.0749999999999 393.98 993.2969999999999 394.284 994.1529999999999 395.017C995.007 395.75 995.3729999999999 396.82099999999997 995.2529999999999 398.223C995.1299999999999 399.629 994.52 401.247 993.42 403.079C990.366 407.357 987.4939999999999 411.966 984.808 416.913C982.12 421.861 979.7379999999999 426.533 977.662 430.93100000000004C977.0500000000001 432.03000000000003 976.563 433.34400000000005 976.196 434.87000000000006C975.83 436.39900000000006 975.647 437.89400000000006 975.647 439.36000000000007C975.647 441.43800000000005 975.95 443.4820000000001 976.5630000000001 445.49800000000005C977.1730000000001 447.51400000000007 978.089 449.31700000000006 979.3110000000001 450.903C980.5310000000002 452.49 982.0600000000002 453.744 983.8920000000002 454.66C985.7250000000001 455.576 987.8000000000002 456.03400000000005 990.1220000000002 456.03400000000005C991.5880000000002 456.03400000000005 993.4200000000002 455.72800000000007 995.6190000000001 455.11800000000005C997.5720000000001 454.38500000000005 999.6500000000001 452.91900000000004 1001.8500000000001 450.72C1004.0500000000002 448.521 1006.2500000000001 445.896 1008.4500000000002 442.841C1010.0721500000002 440.58036 1011.6668700000001 438.20066 1013.2300900000001 435.70353C1013.5474800000002 438.60202 1014.2429500000002 441.46937 1015.3200000000002 444.307C1016.8500000000001 448.338 1019.5600000000002 451.45300000000003 1023.4700000000001 453.65200000000004C1027.6200000000001 455.85100000000006 1031.5300000000002 456.95000000000005 1035.2 456.95000000000005C1040.69 456.95000000000005 1045.8300000000002 455.23800000000006 1050.5900000000001 451.8190000000001C1055.3500000000001 448.40100000000007 1059.6000000000001 444.37000000000006 1063.3200000000002 439.72600000000006C1067.0500000000002 435.08500000000004 1070.2000000000003 430.35300000000007 1072.7600000000002 425.52500000000003C1075.3300000000002 420.701 1077.1600000000003 416.88500000000005 1078.2600000000002 414.07300000000004C1077.6500000000003 413.83000000000004 1076.88 413.49500000000006 1075.9700000000003 413.06600000000003C1075.0500000000002 412.639 1074.1600000000003 412.30400000000003 1073.3100000000002 412.05800000000005C1072.3300000000002 413.4030000000001 1070.9600000000003 415.29600000000005 1069.1900000000003 417.73800000000006C1067.4200000000003 420.18300000000005 1065.4300000000003 422.77700000000004 1063.2300000000002 425.52500000000003C1061.0300000000002 428.27400000000006 1058.8000000000002 430.93100000000004 1056.5400000000002 433.49600000000004C1054.2800000000002 436.062 1052.2400000000002 438.14000000000004 1050.41 439.72600000000006C1047.72 442.17100000000005 1045.21 443.94100000000003 1042.89 445.0400000000001C1040.5700000000002 446.13900000000007 1038.5 446.6890000000001 1036.66 446.6890000000001C1032.88 446.6890000000001 1030.13 444.9200000000001 1028.42 441.37500000000006C1026.71 437.83400000000006 1026.1000000000001 433.5590000000001 1026.5900000000001 428.54900000000004C1026.8300000000002 426.59600000000006 1027.44 424.091 1028.42 421.03600000000006C1035.26 420.06000000000006 1041.4 418.1360000000001 1046.8300000000002 415.26400000000007C1052.2700000000002 412.3960000000001 1056.64 408.82200000000006 1059.93 404.5450000000001C1061.64 402.34600000000006 1063.02 399.96400000000006 1064.0600000000002 397.39900000000006C1065.0900000000001 394.8330000000001 1065.6100000000001 392.45200000000006 1065.6100000000001 390.25300000000004C1065.6100000000001 388.42 1065.16 386.71100000000007 1064.2400000000002 385.12200000000007C1063.3200000000002 383.53600000000006 1061.7700000000002 382.07000000000005 1059.5700000000002 380.7250000000001L1059.7500000000002 380.7250000000001C1057.3100000000002 379.62500000000006 1054.8600000000001 379.0750000000001 1052.4200000000003 379.0750000000001C1049.1200000000003 379.0750000000001 1045.9500000000003 379.9630000000001 1042.8900000000003 381.7320000000001C1039.8400000000004 383.5040000000001 1037.0000000000002 385.6120000000001 1034.3700000000003 388.0540000000001C1031.7400000000002 390.4990000000001 1029.4300000000003 393.0010000000001 1027.4100000000003 395.5660000000001C1025.3900000000003 398.13200000000006 1023.7700000000003 400.2710000000001 1022.5500000000003 401.9800000000001L1022.5500000000003 401.7970000000001C1020.4800000000002 404.9740000000001 1018.8600000000002 408.1500000000001 1017.7000000000003 411.3250000000001C1016.5400000000003 414.5030000000001 1015.6500000000003 416.9450000000001 1015.0400000000003 418.6540000000001C1014.8587400000004 419.1627000000001 1014.6880800000004 419.6982500000001 1014.5282800000003 420.2606100000001C1012.9896300000004 422.1795100000001 1011.4507000000003 424.0873100000001 1009.9100000000003 425.9840000000001C1006.2500000000003 430.5040000000001 1002.4600000000003 434.9020000000001 998.5510000000003 439.1760000000001C996.5960000000002 441.2550000000001 994.9460000000003 442.7490000000001 993.6040000000003 443.6660000000001C992.2580000000003 444.5820000000001 991.1900000000003 445.04000000000013 990.3970000000003 445.04000000000013C989.6010000000002 445.04000000000013 989.0230000000003 444.70500000000015 988.6560000000003 444.03200000000015C988.2900000000003 443.36200000000014 988.1070000000003 442.41500000000013 988.1070000000003 441.1920000000002C988.1070000000003 439.72600000000017 988.7170000000003 437.6190000000002 989.9390000000003 434.8700000000002C991.1590000000003 432.1220000000002 992.6250000000003 429.5280000000002 994.3370000000003 427.0830000000002C997.8780000000004 422.4420000000002 1001.0800000000004 417.6460000000002 1003.9600000000004 412.6990000000002C1006.8300000000004 407.7510000000002 1008.3800000000003 402.2860000000002 1008.6300000000003 396.2990000000002C1008.7500000000003 394.4670000000002 1008.6600000000003 392.6350000000002 1008.3500000000004 390.8020000000002C1008.0500000000004 388.9700000000002 1007.4400000000004 387.3520000000002 1006.5200000000003 385.9460000000002C1005.6100000000004 384.5440000000002 1004.3500000000004 383.5040000000002 1002.7700000000003 382.8320000000002C1001.1800000000003 382.1620000000002 999.1010000000003 382.00700000000023 996.5350000000003 382.3740000000002C995.3130000000003 382.6200000000002 993.6950000000003 383.2610000000002 991.6800000000003 384.2970000000002C989.6640000000003 385.3370000000002 987.5570000000002 386.4960000000002 985.3580000000003 387.7790000000002C983.1590000000003 389.06200000000024 981.0810000000002 390.3440000000002 979.1280000000003 391.62700000000024C977.1730000000002 392.91000000000025 975.6470000000003 393.98000000000025 974.5470000000003 394.83300000000025L978.7620000000003 387.87100000000027L982.2430000000003 380.90800000000024L967.7680000000003 380.90800000000024C966.4220000000003 383.47300000000024 964.9560000000002 386.1300000000002 963.3700000000002 388.87800000000027C961.7810000000002 391.6270000000003 960.3150000000003 394.2840000000003 958.9720000000002 396.8490000000003C956.5270000000002 401.2470000000003 954.1170000000002 405.6440000000003 951.7340000000002 410.04200000000026C949.4416200000002 414.2763200000003 947.3466700000001 418.6237200000003 945.4491700000001 423.08332000000024C944.3850400000001 424.17774000000026 943.0913100000001 425.41903000000025 941.5680000000001 426.8080000000002C939.4890000000001 428.7030000000002 936.1310000000001 430.0780000000002 931.4900000000001 430.9310000000002C936.6200000000001 421.1590000000002 940.1620000000001 412.6070000000002 942.1170000000001 405.2780000000002C942.1170000000001 405.0350000000002 942.1780000000001 404.7280000000002 942.301 404.3620000000002C942.421 403.9950000000002 942.484 403.6920000000002 942.484 403.4460000000002C942.971 401.7360000000002 943.4000000000001 400.0270000000002 943.7660000000001 398.31500000000017C944.133 396.60600000000017 944.316 395.01700000000017 944.316 393.55100000000016C944.316 391.71900000000016 943.95 389.9490000000002 943.217 388.23700000000014C942.484 386.52800000000013 941.078 385.0020000000001 939.002 383.6560000000001L939.002 383.8390000000001C934.848 381.5200000000001 930.817 380.90800000000013 926.909 382.0070000000001C925.197 381.0310000000001 923.548 380.3290000000001 921.962 379.9000000000001C920.3729999999999 379.47300000000007 918.847 379.25900000000007 917.381 379.25900000000007C913.836 379.25900000000007 910.478 380.1460000000001 907.303 381.91600000000005C904.125 383.68800000000005 901.316 385.73500000000007 898.874 388.05400000000003C893.254 393.43100000000004 888.581 399.47700000000003 884.857 406.194ZM1179.77 333.267L1183.98 325.57099999999997C1186.06 321.90599999999995 1188.19 318.27299999999997 1190.39 314.66799999999995C1192.5900000000001 311.06699999999995 1195.0900000000001 307.91999999999996 1197.91 305.23199999999997C1200.3500000000001 302.78999999999996 1202.3600000000001 301.109 1203.95 300.193C1205.54 299.277 1206.82 298.942 1207.8 299.185C1208.78 299.431 1209.45 300.164 1209.82 301.384C1210.1799999999998 302.606 1210.37 304.012 1210.37 305.598C1210.37 306.944 1210.2099999999998 308.34700000000004 1209.9099999999999 309.813C1209.6 311.279 1209.33 312.68399999999997 1209.08 314.027C1208.84 315.493 1208.3799999999999 317.05 1207.71 318.7C1207.04 320.349 1206.3 321.998 1205.51 323.647C1204.71 325.296 1203.92 326.885 1203.1299999999999 328.411C1202.33 329.94 1201.6299999999999 331.191 1201.02 332.167C1198.58 336.198 1195.71 340.138 1192.41 343.986C1189.1100000000001 347.834 1185.5400000000002 351.562 1181.69 355.163C1177.8400000000001 358.76800000000003 1173.81 362.158 1169.6000000000001 365.333C1165.38 368.511 1161.2 371.442 1157.0400000000002 374.12800000000004C1159.9800000000002 368.63100000000003 1162.5400000000002 363.867 1164.7400000000002 359.83600000000007C1166.9400000000003 355.80500000000006 1168.9200000000003 352.2030000000001 1170.7000000000003 349.0250000000001C1172.4600000000003 345.8500000000001 1174.0500000000002 343.0410000000001 1175.4600000000003 340.5960000000001C1176.8600000000004 338.1540000000001 1178.3000000000002 335.7720000000001 1179.7700000000002 333.4500000000001ZM873.772 295.52C877.557 295.767 880.1220000000001 297.078 881.4680000000001 299.46C882.811 301.842 883.4830000000001 304.49899999999997 883.4830000000001 307.431C883.4830000000001 309.02 883.3290000000001 310.7 883.0250000000001 312.469C882.719 314.242 882.2610000000001 315.676 881.6510000000001 316.775C879.695 320.80699999999996 876.9780000000001 324.92999999999995 873.4970000000001 329.144C870.0160000000001 333.358 865.921 337.452 861.22 341.421C856.5160000000001 345.392 851.263 349.116 845.462 352.598C839.659 356.079 833.52 359.103 827.047 361.668C830.465 352.63 833.7950000000001 344.049 837.033 335.924C840.268 327.801 843.721 320.715 847.386 314.668C851.0509999999999 308.622 854.99 303.857 859.2049999999999 300.37600000000003C863.419 296.89500000000004 868.2119999999999 295.27700000000004 873.5889999999999 295.52000000000004ZM914.632 428.182L915.732 430.564C914.509 431.91 913.41 433.19300000000004 912.433 434.41200000000003C911.454 435.63500000000005 910.538 436.67400000000004 909.685 437.52700000000004C907.2399999999999 440.09200000000004 905.0719999999999 441.92500000000007 903.18 443.02400000000006C901.285 444.1240000000001 899.4839999999999 444.67300000000006 897.775 444.67300000000006C895.576 444.67300000000006 893.8349999999999 443.78900000000004 892.552 442.0160000000001C891.27 440.24700000000007 890.628 437.89400000000006 890.628 434.9620000000001C890.628 433.6190000000001 890.749 432.3370000000001 890.995 431.1140000000001C891.238 429.8950000000001 891.545 428.6120000000001 891.9110000000001 427.2660000000001C892.644 424.7010000000001 893.835 421.58600000000007 895.484 417.92100000000005C897.133 414.25700000000006 899.1170000000001 410.59200000000004 901.4390000000001 406.927C903.758 403.262 906.3240000000001 399.812 909.1350000000001 396.574C911.9440000000001 393.339 914.8750000000001 390.742 917.9300000000001 388.78700000000003C916.0980000000001 393.064 914.509 397.46200000000005 913.166 401.98C911.821 406.5 911.1510000000001 410.53200000000004 911.1510000000001 414.07300000000004C911.1510000000001 416.51800000000003 911.3940000000001 418.90000000000003 911.884 421.21900000000005C912.37 423.54100000000005 913.287 425.80000000000007 914.6320000000001 427.999ZM1043.63 394.101C1043.99 393.614 1044.97 392.698 1046.5600000000002 391.352C1048.14 390.00899999999996 1049.7700000000002 388.878 1051.41 387.962C1053.0600000000002 387.046 1054.5600000000002 386.651 1055.9 386.771C1057.25 386.894 1057.92 388.05400000000003 1057.92 390.25300000000004C1057.92 391.84200000000004 1056.51 395.63000000000005 1053.7 401.61300000000006C1052.97 402.83600000000007 1051.72 404.17900000000003 1049.95 405.64400000000006C1048.18 407.11000000000007 1046.19 408.5160000000001 1043.99 409.85900000000004C1041.79 411.20400000000006 1039.47 412.487 1037.03 413.70700000000005C1034.59 414.92900000000003 1032.27 415.90600000000006 1030.07 416.63800000000003C1032.51 411.50800000000004 1034.95 407.019 1037.3999999999999 403.17100000000005C1039.84 399.32300000000004 1041.9099999999999 396.36300000000006 1043.6299999999999 394.28400000000005ZM729.841 439.543C727.213 438.077 725.901 436.491 725.901 434.779C725.901 433.07 727.029 431.604 729.2909999999999 430.381C731.55 429.16099999999994 734.9999999999999 428.549 739.6439999999999 428.549C742.8189999999998 428.549 746.2689999999999 429.007 749.9969999999998 429.923C753.7219999999999 430.839 757.6609999999998 432.03000000000003 761.8149999999998 433.496C758.0279999999998 436.185 754.3939999999998 438.23199999999997 750.9129999999998 439.63399999999996C747.4309999999998 441.03999999999996 744.1019999999997 441.74199999999996 740.9269999999998 441.74199999999996C736.1629999999998 441.74199999999996 732.4659999999998 441.00899999999996 729.8409999999998 439.54299999999995ZM933.047 391.26C933.84 393.033 933.8720000000001 395.873 933.139 399.781C931.916 405.401 928.495 412.67 922.878 421.586C921.899 419.387 921.32 416.793 921.1370000000001 413.798C920.9540000000001 410.806 921.1370000000001 407.815 921.687 404.82C922.236 401.828 923.153 399.048 924.4350000000001 396.483C925.7180000000001 393.91700000000003 927.3960000000001 391.902 929.474 390.436C931.0600000000001 389.21599999999995 932.2510000000001 389.491 933.047 391.26ZM1238.95 348.109C1239.44 346.03299999999996 1239.29 344.26099999999997 1238.49 342.79499999999996C1237.7 341.32899999999995 1236.75 340.35299999999995 1235.65 339.86299999999994C1233.94 339.98599999999993 1231.96 340.90299999999996 1229.7 342.61199999999997C1227.43 344.32399999999996 1225.88 346.4 1225.02 348.842C1224.53 350.554 1224.59 352.14 1225.21 353.606C1225.82 355.072 1226.8600000000001 356.051 1228.32 356.537C1230.03 357.027 1232.02 356.354 1234.28 354.522C1236.54 352.69 1238.09 350.491 1238.95 347.925ZM1328.18 417.005L1326.72 419.387C1325 422.685 1323.3 425.709 1321.59 428.457C1319.87 431.206 1317.62 434.046 1314.81 436.978C1313.09 438.69 1311.48 439.97200000000004 1309.95 440.825C1308.42 441.681 1307.1100000000001 442.108 1306.01 442.108C1303.93 442.108 1302.35 441.163 1301.25 439.26800000000003C1300.15 437.37600000000003 1299.72 434.475 1299.96 430.564C1300.21 425.68 1301.03 421.25100000000003 1302.44 417.28000000000003C1303.8400000000001 413.312 1304.97 410.47200000000004 1305.8300000000002 408.759C1307.2900000000002 405.82800000000003 1308.9700000000003 403.111 1310.8700000000001 400.605C1312.7600000000002 398.103 1314.8700000000001 395.689 1317.19 393.368C1319.63 390.926 1321.77 389.185 1323.6000000000001 388.146C1325.43 387.10900000000004 1327.0200000000002 386.588 1328.3700000000001 386.588C1330.44 386.588 1331.94 387.444 1332.8600000000001 389.153C1333.7700000000002 390.865 1334.23 393.00100000000003 1334.23 395.56600000000003C1334.23 397.76500000000004 1333.95 400.14700000000005 1333.4 402.713C1332.8600000000001 405.278 1332.0900000000001 407.6 1331.1100000000001 409.67600000000004Z " fill="#ffffff" fill-opacity="1" transform="matrix(1,0,0,1,-707,-280)"></path></svg>