<svg xmlns="http://www.w3.org/2000/svg" viewBox="0 0 41.32 33.8"><title>Ресурс 2</title><g id="Шар_2" data-name="Шар 2"><g id="Layer_1" data-name="Layer 1"><path id="_Контур_" data-name="&lt;Контур&gt;" d="M2.64,1.54a25.65,25.65,0,0,0,17.45,9.07C20.09,5.84,21.5,1,27,.09c2.82-.47,4.63,1,7,1.93l.68.28a1.49,1.49,0,0,0,1,.05A23.73,23.73,0,0,0,40,.69c.06,1.8-2.11,3.57-3.42,4.64a21.18,21.18,0,0,0,4.72-1.26c-1.15,1.43-3.51,3.13-4.16,4.69-.48,1.15-.09,3.09-.23,4.35a18.19,18.19,0,0,1-1,4.07,25.45,25.45,0,0,1-8.5,12,24.75,24.75,0,0,1-14.12,4.6C9.18,33.91,3,32.92,0,30c3.56-.79,7.84-1.41,10.65-3.9-2.73-.56-5.85-2.62-6.27-5.58a8,8,0,0,0,3.75-.15C4.54,19.09,1,16.1,1.34,11.87a12.76,12.76,0,0,0,4,1.34C1.82,9.31.68,6.71,2.64,1.54Z"/></g></g></svg>